<svg width="26" height="24" viewBox="0 0 26 24" fill="none" xmlns="http://www.w3.org/2000/svg">
<path d="M5.45455 24H0V7.63636H5.45455V24ZM2.72836 5.45455C1.21964 5.45455 0 4.23164 0 2.72618C0 1.22073 1.22182 0 2.72836 0C4.23164 0 5.45455 1.22291 5.45455 2.72618C5.45455 4.23164 4.23164 5.45455 2.72836 5.45455ZM25.0909 24H19.8469V16.0364C19.8469 14.1371 19.8109 11.6945 17.1207 11.6945C14.3902 11.6945 13.9702 13.7629 13.9702 15.8989V24H8.72727V7.62436H13.7607V9.86182H13.8316C14.532 8.57455 16.2436 7.21745 18.7964 7.21745C24.1091 7.21745 25.0909 10.6091 25.0909 15.0185V24Z" fill="white"/>
</svg>
