<svg width="24" height="24" viewBox="0 0 24 24" fill="none" xmlns="http://www.w3.org/2000/svg">
<path d="M21.8182 0H2.18182C0.976364 0 0 0.976364 0 2.18182V21.8182C0 23.0236 0.976364 24 2.18182 24H21.8182C23.0236 24 24 23.0236 24 21.8182V2.18182C24 0.976364 23.0236 0 21.8182 0ZM20.2276 18.5455H13.7575V18.1822L15.2727 16.8491V9.24L11.5516 18.5455H10.9702L6.81818 9.16691V15.8073L8.71636 18.1822V18.5455H3.77236V18.1822L5.73491 15.8073V7.90691L3.99055 5.72618C3.99055 5.72618 3.99055 5.41091 3.99055 5.46H8.76436L12.4724 13.4815L15.6709 5.46H20.2025V5.72618L18.5455 7.11927V16.8491L20.2276 18.1822V18.5455Z" fill="white"/>
</svg>
